<mxfile host="app.diagrams.net" modified="2021-04-27T00:24:18.074Z" agent="5.0 (Windows NT 10.0; Win64; x64) AppleWebKit/537.36 (KHTML, like Gecko) Chrome/90.0.4430.85 Safari/537.36" etag="9Z4vWvyBAWSWchshQin5" version="14.6.6" type="gitlab" pages="2">
  <diagram id="MEIpLVsqn8X1pe-fE5qQ" name="Flowchart">
    <mxGraphModel dx="1422" dy="762" grid="1" gridSize="10" guides="1" tooltips="1" connect="1" arrows="1" fold="1" page="1" pageScale="1" pageWidth="850" pageHeight="1100" math="0" shadow="0">
      <root>
        <mxCell id="0" />
        <mxCell id="1" parent="0" />
        <mxCell id="zTeEEiwg9sR5JX6L5g-o-14" style="edgeStyle=orthogonalEdgeStyle;rounded=0;orthogonalLoop=1;jettySize=auto;html=1;exitX=0.5;exitY=1;exitDx=0;exitDy=0;exitPerimeter=0;entryX=0.5;entryY=0;entryDx=0;entryDy=0;entryPerimeter=0;" edge="1" parent="1" source="zTeEEiwg9sR5JX6L5g-o-3" target="zTeEEiwg9sR5JX6L5g-o-13">
          <mxGeometry relative="1" as="geometry" />
        </mxCell>
        <mxCell id="zTeEEiwg9sR5JX6L5g-o-3" value="START" style="strokeWidth=2;html=1;shape=mxgraph.flowchart.start_1;whiteSpace=wrap;" vertex="1" parent="1">
          <mxGeometry x="390" y="50" width="100" height="60" as="geometry" />
        </mxCell>
        <mxCell id="zTeEEiwg9sR5JX6L5g-o-4" value="Name &amp;amp; Location of Objects Identified" style="strokeWidth=2;html=1;shape=mxgraph.flowchart.stored_data;whiteSpace=wrap;" vertex="1" parent="1">
          <mxGeometry x="210" y="40" width="140" height="80" as="geometry" />
        </mxCell>
        <mxCell id="zTeEEiwg9sR5JX6L5g-o-6" value="" style="endArrow=classic;html=1;exitX=0.93;exitY=0.5;exitDx=0;exitDy=0;exitPerimeter=0;" edge="1" parent="1" source="zTeEEiwg9sR5JX6L5g-o-4" target="zTeEEiwg9sR5JX6L5g-o-3">
          <mxGeometry width="50" height="50" relative="1" as="geometry">
            <mxPoint x="400" y="220" as="sourcePoint" />
            <mxPoint x="450" y="170" as="targetPoint" />
          </mxGeometry>
        </mxCell>
        <mxCell id="zTeEEiwg9sR5JX6L5g-o-7" value="" style="endArrow=classic;html=1;entryX=1;entryY=0.5;entryDx=0;entryDy=0;entryPerimeter=0;" edge="1" parent="1" source="zTeEEiwg9sR5JX6L5g-o-20" target="zTeEEiwg9sR5JX6L5g-o-3">
          <mxGeometry width="50" height="50" relative="1" as="geometry">
            <mxPoint x="530" y="80" as="sourcePoint" />
            <mxPoint x="450" y="170" as="targetPoint" />
          </mxGeometry>
        </mxCell>
        <mxCell id="zTeEEiwg9sR5JX6L5g-o-15" style="edgeStyle=orthogonalEdgeStyle;rounded=0;orthogonalLoop=1;jettySize=auto;html=1;exitX=0.5;exitY=1;exitDx=0;exitDy=0;exitPerimeter=0;entryX=0.5;entryY=0;entryDx=0;entryDy=0;entryPerimeter=0;" edge="1" parent="1" source="zTeEEiwg9sR5JX6L5g-o-13" target="zTeEEiwg9sR5JX6L5g-o-16">
          <mxGeometry relative="1" as="geometry">
            <mxPoint x="440" y="225" as="targetPoint" />
          </mxGeometry>
        </mxCell>
        <mxCell id="zTeEEiwg9sR5JX6L5g-o-22" style="edgeStyle=orthogonalEdgeStyle;rounded=0;orthogonalLoop=1;jettySize=auto;html=1;exitX=0.5;exitY=1;exitDx=0;exitDy=0;exitPerimeter=0;entryX=0.5;entryY=0;entryDx=0;entryDy=0;" edge="1" parent="1" source="zTeEEiwg9sR5JX6L5g-o-13" target="zTeEEiwg9sR5JX6L5g-o-21">
          <mxGeometry relative="1" as="geometry" />
        </mxCell>
        <mxCell id="zTeEEiwg9sR5JX6L5g-o-13" value="Object Identified capable of disambiguation?" style="strokeWidth=2;html=1;shape=mxgraph.flowchart.decision;whiteSpace=wrap;" vertex="1" parent="1">
          <mxGeometry x="325" y="130" width="230" height="80" as="geometry" />
        </mxCell>
        <mxCell id="zTeEEiwg9sR5JX6L5g-o-16" value="Eliminate Objects" style="strokeWidth=2;html=1;shape=mxgraph.flowchart.terminator;whiteSpace=wrap;" vertex="1" parent="1">
          <mxGeometry x="230" y="250" width="100" height="40" as="geometry" />
        </mxCell>
        <mxCell id="zTeEEiwg9sR5JX6L5g-o-18" value="No" style="text;html=1;align=center;verticalAlign=middle;resizable=0;points=[];autosize=1;strokeColor=none;" vertex="1" parent="1">
          <mxGeometry x="330" y="210" width="30" height="20" as="geometry" />
        </mxCell>
        <mxCell id="zTeEEiwg9sR5JX6L5g-o-20" value="Attribute Database" style="strokeWidth=2;html=1;shape=mxgraph.flowchart.database;whiteSpace=wrap;" vertex="1" parent="1">
          <mxGeometry x="550" y="35" width="60" height="90" as="geometry" />
        </mxCell>
        <mxCell id="zTeEEiwg9sR5JX6L5g-o-25" style="edgeStyle=orthogonalEdgeStyle;rounded=0;orthogonalLoop=1;jettySize=auto;html=1;exitX=0.5;exitY=1;exitDx=0;exitDy=0;entryX=0.5;entryY=0;entryDx=0;entryDy=0;" edge="1" parent="1" source="zTeEEiwg9sR5JX6L5g-o-21" target="zTeEEiwg9sR5JX6L5g-o-24">
          <mxGeometry relative="1" as="geometry" />
        </mxCell>
        <mxCell id="zTeEEiwg9sR5JX6L5g-o-21" value="Find unique features of all objects in the group" style="rounded=1;whiteSpace=wrap;html=1;" vertex="1" parent="1">
          <mxGeometry x="495" y="250" width="170" height="40" as="geometry" />
        </mxCell>
        <mxCell id="zTeEEiwg9sR5JX6L5g-o-27" style="edgeStyle=orthogonalEdgeStyle;rounded=0;orthogonalLoop=1;jettySize=auto;html=1;exitX=0.5;exitY=1;exitDx=0;exitDy=0;entryX=0.5;entryY=0;entryDx=0;entryDy=0;" edge="1" parent="1" source="zTeEEiwg9sR5JX6L5g-o-24" target="zTeEEiwg9sR5JX6L5g-o-26">
          <mxGeometry relative="1" as="geometry" />
        </mxCell>
        <mxCell id="zTeEEiwg9sR5JX6L5g-o-24" value="Find closest object to the user" style="rounded=1;whiteSpace=wrap;html=1;" vertex="1" parent="1">
          <mxGeometry x="495" y="310" width="170" height="30" as="geometry" />
        </mxCell>
        <mxCell id="zTeEEiwg9sR5JX6L5g-o-29" style="edgeStyle=orthogonalEdgeStyle;rounded=0;orthogonalLoop=1;jettySize=auto;html=1;exitX=0.5;exitY=1;exitDx=0;exitDy=0;entryX=0.5;entryY=0;entryDx=0;entryDy=0;entryPerimeter=0;" edge="1" parent="1" source="zTeEEiwg9sR5JX6L5g-o-26" target="zTeEEiwg9sR5JX6L5g-o-28">
          <mxGeometry relative="1" as="geometry" />
        </mxCell>
        <mxCell id="zTeEEiwg9sR5JX6L5g-o-26" value="Rearrange attribute based questions to maximise information gain" style="rounded=1;whiteSpace=wrap;html=1;" vertex="1" parent="1">
          <mxGeometry x="460" y="360" width="240" height="40" as="geometry" />
        </mxCell>
        <mxCell id="zTeEEiwg9sR5JX6L5g-o-32" style="edgeStyle=orthogonalEdgeStyle;rounded=0;orthogonalLoop=1;jettySize=auto;html=1;exitX=1;exitY=0.5;exitDx=0;exitDy=0;exitPerimeter=0;entryX=0.5;entryY=0;entryDx=0;entryDy=0;entryPerimeter=0;" edge="1" parent="1" source="zTeEEiwg9sR5JX6L5g-o-28" target="zTeEEiwg9sR5JX6L5g-o-83">
          <mxGeometry relative="1" as="geometry">
            <mxPoint x="595" y="460" as="targetPoint" />
          </mxGeometry>
        </mxCell>
        <mxCell id="zTeEEiwg9sR5JX6L5g-o-34" style="edgeStyle=orthogonalEdgeStyle;rounded=0;orthogonalLoop=1;jettySize=auto;html=1;exitX=0;exitY=0.5;exitDx=0;exitDy=0;exitPerimeter=0;entryX=0.5;entryY=0;entryDx=0;entryDy=0;entryPerimeter=0;" edge="1" parent="1" source="zTeEEiwg9sR5JX6L5g-o-28" target="zTeEEiwg9sR5JX6L5g-o-33">
          <mxGeometry relative="1" as="geometry" />
        </mxCell>
        <mxCell id="zTeEEiwg9sR5JX6L5g-o-37" style="edgeStyle=orthogonalEdgeStyle;rounded=0;orthogonalLoop=1;jettySize=auto;html=1;exitX=0.5;exitY=1;exitDx=0;exitDy=0;exitPerimeter=0;entryX=0.5;entryY=0;entryDx=0;entryDy=0;entryPerimeter=0;" edge="1" parent="1" source="zTeEEiwg9sR5JX6L5g-o-28" target="zTeEEiwg9sR5JX6L5g-o-53">
          <mxGeometry relative="1" as="geometry">
            <mxPoint x="485" y="520" as="targetPoint" />
          </mxGeometry>
        </mxCell>
        <mxCell id="zTeEEiwg9sR5JX6L5g-o-89" style="edgeStyle=orthogonalEdgeStyle;rounded=0;orthogonalLoop=1;jettySize=auto;html=1;exitX=0.5;exitY=1;exitDx=0;exitDy=0;exitPerimeter=0;entryX=0;entryY=0.5;entryDx=0;entryDy=0;entryPerimeter=0;" edge="1" parent="1" source="zTeEEiwg9sR5JX6L5g-o-28" target="zTeEEiwg9sR5JX6L5g-o-16">
          <mxGeometry relative="1" as="geometry" />
        </mxCell>
        <mxCell id="zTeEEiwg9sR5JX6L5g-o-28" value="Question 1" style="strokeWidth=2;html=1;shape=mxgraph.flowchart.decision;whiteSpace=wrap;" vertex="1" parent="1">
          <mxGeometry x="435" y="440" width="100" height="40" as="geometry" />
        </mxCell>
        <mxCell id="zTeEEiwg9sR5JX6L5g-o-33" value="Disambiguation failed!" style="strokeWidth=2;html=1;shape=mxgraph.flowchart.terminator;whiteSpace=wrap;" vertex="1" parent="1">
          <mxGeometry x="230" y="760" width="100" height="40" as="geometry" />
        </mxCell>
        <mxCell id="zTeEEiwg9sR5JX6L5g-o-35" value="No Matches" style="text;html=1;align=center;verticalAlign=middle;resizable=0;points=[];autosize=1;strokeColor=none;" vertex="1" parent="1">
          <mxGeometry x="355" y="440" width="80" height="20" as="geometry" />
        </mxCell>
        <mxCell id="zTeEEiwg9sR5JX6L5g-o-36" value="One Match" style="text;html=1;align=center;verticalAlign=middle;resizable=0;points=[];autosize=1;strokeColor=none;" vertex="1" parent="1">
          <mxGeometry x="525" y="440" width="70" height="20" as="geometry" />
        </mxCell>
        <mxCell id="zTeEEiwg9sR5JX6L5g-o-38" value="Multiple Matches" style="text;html=1;align=center;verticalAlign=middle;resizable=0;points=[];autosize=1;strokeColor=none;" vertex="1" parent="1">
          <mxGeometry x="485" y="490" width="110" height="20" as="geometry" />
        </mxCell>
        <mxCell id="zTeEEiwg9sR5JX6L5g-o-50" style="edgeStyle=orthogonalEdgeStyle;rounded=0;orthogonalLoop=1;jettySize=auto;html=1;exitX=1;exitY=0.5;exitDx=0;exitDy=0;exitPerimeter=0;entryX=0.5;entryY=0;entryDx=0;entryDy=0;entryPerimeter=0;" edge="1" parent="1" source="zTeEEiwg9sR5JX6L5g-o-53" target="zTeEEiwg9sR5JX6L5g-o-83">
          <mxGeometry relative="1" as="geometry">
            <mxPoint x="595" y="540" as="targetPoint" />
          </mxGeometry>
        </mxCell>
        <mxCell id="zTeEEiwg9sR5JX6L5g-o-51" style="edgeStyle=orthogonalEdgeStyle;rounded=0;orthogonalLoop=1;jettySize=auto;html=1;exitX=0;exitY=0.5;exitDx=0;exitDy=0;exitPerimeter=0;entryX=0.5;entryY=0;entryDx=0;entryDy=0;entryPerimeter=0;" edge="1" parent="1" source="zTeEEiwg9sR5JX6L5g-o-53" target="zTeEEiwg9sR5JX6L5g-o-33">
          <mxGeometry relative="1" as="geometry">
            <mxPoint x="280" y="540" as="targetPoint" />
          </mxGeometry>
        </mxCell>
        <mxCell id="zTeEEiwg9sR5JX6L5g-o-52" style="edgeStyle=orthogonalEdgeStyle;rounded=0;orthogonalLoop=1;jettySize=auto;html=1;exitX=0.5;exitY=1;exitDx=0;exitDy=0;exitPerimeter=0;entryX=0.5;entryY=0;entryDx=0;entryDy=0;entryPerimeter=0;" edge="1" parent="1" source="zTeEEiwg9sR5JX6L5g-o-53" target="zTeEEiwg9sR5JX6L5g-o-63">
          <mxGeometry relative="1" as="geometry">
            <mxPoint x="485" y="600" as="targetPoint" />
          </mxGeometry>
        </mxCell>
        <mxCell id="zTeEEiwg9sR5JX6L5g-o-90" style="edgeStyle=orthogonalEdgeStyle;rounded=0;orthogonalLoop=1;jettySize=auto;html=1;exitX=0.5;exitY=1;exitDx=0;exitDy=0;exitPerimeter=0;entryX=0;entryY=0.5;entryDx=0;entryDy=0;entryPerimeter=0;" edge="1" parent="1" source="zTeEEiwg9sR5JX6L5g-o-53" target="zTeEEiwg9sR5JX6L5g-o-16">
          <mxGeometry relative="1" as="geometry">
            <mxPoint x="210" y="380" as="targetPoint" />
          </mxGeometry>
        </mxCell>
        <mxCell id="zTeEEiwg9sR5JX6L5g-o-53" value="Question 2" style="strokeWidth=2;html=1;shape=mxgraph.flowchart.decision;whiteSpace=wrap;" vertex="1" parent="1">
          <mxGeometry x="435" y="520" width="100" height="40" as="geometry" />
        </mxCell>
        <mxCell id="zTeEEiwg9sR5JX6L5g-o-56" value="No Matches" style="text;html=1;align=center;verticalAlign=middle;resizable=0;points=[];autosize=1;strokeColor=none;" vertex="1" parent="1">
          <mxGeometry x="360" y="520" width="80" height="20" as="geometry" />
        </mxCell>
        <mxCell id="zTeEEiwg9sR5JX6L5g-o-57" value="One Match" style="text;html=1;align=center;verticalAlign=middle;resizable=0;points=[];autosize=1;strokeColor=none;" vertex="1" parent="1">
          <mxGeometry x="525" y="520" width="70" height="20" as="geometry" />
        </mxCell>
        <mxCell id="zTeEEiwg9sR5JX6L5g-o-58" value="Multiple Matches" style="text;html=1;align=center;verticalAlign=middle;resizable=0;points=[];autosize=1;strokeColor=none;" vertex="1" parent="1">
          <mxGeometry x="485" y="570" width="110" height="20" as="geometry" />
        </mxCell>
        <mxCell id="zTeEEiwg9sR5JX6L5g-o-60" style="edgeStyle=orthogonalEdgeStyle;rounded=0;orthogonalLoop=1;jettySize=auto;html=1;exitX=1;exitY=0.5;exitDx=0;exitDy=0;exitPerimeter=0;entryX=0.5;entryY=0;entryDx=0;entryDy=0;entryPerimeter=0;" edge="1" parent="1" source="zTeEEiwg9sR5JX6L5g-o-63" target="zTeEEiwg9sR5JX6L5g-o-83">
          <mxGeometry relative="1" as="geometry">
            <mxPoint x="595" y="620" as="targetPoint" />
          </mxGeometry>
        </mxCell>
        <mxCell id="zTeEEiwg9sR5JX6L5g-o-61" style="edgeStyle=orthogonalEdgeStyle;rounded=0;orthogonalLoop=1;jettySize=auto;html=1;exitX=0;exitY=0.5;exitDx=0;exitDy=0;exitPerimeter=0;" edge="1" parent="1" source="zTeEEiwg9sR5JX6L5g-o-63">
          <mxGeometry relative="1" as="geometry">
            <mxPoint x="280" y="760" as="targetPoint" />
          </mxGeometry>
        </mxCell>
        <mxCell id="zTeEEiwg9sR5JX6L5g-o-62" style="edgeStyle=orthogonalEdgeStyle;rounded=0;orthogonalLoop=1;jettySize=auto;html=1;exitX=0.5;exitY=1;exitDx=0;exitDy=0;exitPerimeter=0;entryX=0.5;entryY=0;entryDx=0;entryDy=0;entryPerimeter=0;" edge="1" parent="1" source="zTeEEiwg9sR5JX6L5g-o-63" target="zTeEEiwg9sR5JX6L5g-o-73">
          <mxGeometry relative="1" as="geometry">
            <mxPoint x="485" y="680" as="targetPoint" />
          </mxGeometry>
        </mxCell>
        <mxCell id="zTeEEiwg9sR5JX6L5g-o-91" style="edgeStyle=orthogonalEdgeStyle;rounded=0;orthogonalLoop=1;jettySize=auto;html=1;exitX=0.5;exitY=1;exitDx=0;exitDy=0;exitPerimeter=0;entryX=0;entryY=0.5;entryDx=0;entryDy=0;entryPerimeter=0;" edge="1" parent="1" source="zTeEEiwg9sR5JX6L5g-o-63" target="zTeEEiwg9sR5JX6L5g-o-16">
          <mxGeometry relative="1" as="geometry" />
        </mxCell>
        <mxCell id="zTeEEiwg9sR5JX6L5g-o-63" value="Question 3" style="strokeWidth=2;html=1;shape=mxgraph.flowchart.decision;whiteSpace=wrap;" vertex="1" parent="1">
          <mxGeometry x="435" y="600" width="100" height="40" as="geometry" />
        </mxCell>
        <mxCell id="zTeEEiwg9sR5JX6L5g-o-66" value="No Matches" style="text;html=1;align=center;verticalAlign=middle;resizable=0;points=[];autosize=1;strokeColor=none;" vertex="1" parent="1">
          <mxGeometry x="355" y="600" width="80" height="20" as="geometry" />
        </mxCell>
        <mxCell id="zTeEEiwg9sR5JX6L5g-o-67" value="One Match" style="text;html=1;align=center;verticalAlign=middle;resizable=0;points=[];autosize=1;strokeColor=none;" vertex="1" parent="1">
          <mxGeometry x="525" y="600" width="70" height="20" as="geometry" />
        </mxCell>
        <mxCell id="zTeEEiwg9sR5JX6L5g-o-68" value="Multiple Matches" style="text;html=1;align=center;verticalAlign=middle;resizable=0;points=[];autosize=1;strokeColor=none;" vertex="1" parent="1">
          <mxGeometry x="485" y="650" width="110" height="20" as="geometry" />
        </mxCell>
        <mxCell id="zTeEEiwg9sR5JX6L5g-o-70" style="edgeStyle=orthogonalEdgeStyle;rounded=0;orthogonalLoop=1;jettySize=auto;html=1;exitX=1;exitY=0.5;exitDx=0;exitDy=0;exitPerimeter=0;entryX=0.5;entryY=0;entryDx=0;entryDy=0;entryPerimeter=0;" edge="1" parent="1" source="zTeEEiwg9sR5JX6L5g-o-73" target="zTeEEiwg9sR5JX6L5g-o-83">
          <mxGeometry relative="1" as="geometry">
            <mxPoint x="595" y="700" as="targetPoint" />
          </mxGeometry>
        </mxCell>
        <mxCell id="zTeEEiwg9sR5JX6L5g-o-71" style="edgeStyle=orthogonalEdgeStyle;rounded=0;orthogonalLoop=1;jettySize=auto;html=1;exitX=0;exitY=0.5;exitDx=0;exitDy=0;exitPerimeter=0;entryX=0.5;entryY=0;entryDx=0;entryDy=0;entryPerimeter=0;" edge="1" parent="1" source="zTeEEiwg9sR5JX6L5g-o-73" target="zTeEEiwg9sR5JX6L5g-o-33">
          <mxGeometry relative="1" as="geometry">
            <mxPoint x="355" y="700" as="targetPoint" />
          </mxGeometry>
        </mxCell>
        <mxCell id="zTeEEiwg9sR5JX6L5g-o-72" style="edgeStyle=orthogonalEdgeStyle;rounded=0;orthogonalLoop=1;jettySize=auto;html=1;exitX=0.5;exitY=1;exitDx=0;exitDy=0;exitPerimeter=0;entryX=0.5;entryY=0;entryDx=0;entryDy=0;entryPerimeter=0;" edge="1" parent="1" source="zTeEEiwg9sR5JX6L5g-o-73" target="zTeEEiwg9sR5JX6L5g-o-79">
          <mxGeometry relative="1" as="geometry">
            <mxPoint x="485" y="750" as="targetPoint" />
          </mxGeometry>
        </mxCell>
        <mxCell id="zTeEEiwg9sR5JX6L5g-o-92" style="edgeStyle=orthogonalEdgeStyle;rounded=0;orthogonalLoop=1;jettySize=auto;html=1;exitX=0.5;exitY=1;exitDx=0;exitDy=0;exitPerimeter=0;entryX=0;entryY=0.5;entryDx=0;entryDy=0;entryPerimeter=0;" edge="1" parent="1" source="zTeEEiwg9sR5JX6L5g-o-73" target="zTeEEiwg9sR5JX6L5g-o-16">
          <mxGeometry relative="1" as="geometry" />
        </mxCell>
        <mxCell id="zTeEEiwg9sR5JX6L5g-o-73" value="Question 4" style="strokeWidth=2;html=1;shape=mxgraph.flowchart.decision;whiteSpace=wrap;" vertex="1" parent="1">
          <mxGeometry x="435" y="680" width="100" height="40" as="geometry" />
        </mxCell>
        <mxCell id="zTeEEiwg9sR5JX6L5g-o-76" value="No Matches" style="text;html=1;align=center;verticalAlign=middle;resizable=0;points=[];autosize=1;strokeColor=none;" vertex="1" parent="1">
          <mxGeometry x="355" y="680" width="80" height="20" as="geometry" />
        </mxCell>
        <mxCell id="zTeEEiwg9sR5JX6L5g-o-77" value="One Match" style="text;html=1;align=center;verticalAlign=middle;resizable=0;points=[];autosize=1;strokeColor=none;" vertex="1" parent="1">
          <mxGeometry x="525" y="680" width="70" height="20" as="geometry" />
        </mxCell>
        <mxCell id="zTeEEiwg9sR5JX6L5g-o-78" value="Multiple Matches" style="text;html=1;align=center;verticalAlign=middle;resizable=0;points=[];autosize=1;strokeColor=none;" vertex="1" parent="1">
          <mxGeometry x="485" y="730" width="110" height="20" as="geometry" />
        </mxCell>
        <mxCell id="zTeEEiwg9sR5JX6L5g-o-79" value="Object not identified!" style="strokeWidth=2;html=1;shape=mxgraph.flowchart.terminator;whiteSpace=wrap;" vertex="1" parent="1">
          <mxGeometry x="435" y="760" width="100" height="40" as="geometry" />
        </mxCell>
        <mxCell id="zTeEEiwg9sR5JX6L5g-o-87" style="edgeStyle=orthogonalEdgeStyle;rounded=0;orthogonalLoop=1;jettySize=auto;html=1;exitX=0.5;exitY=1;exitDx=0;exitDy=0;exitPerimeter=0;entryX=0.5;entryY=0;entryDx=0;entryDy=0;" edge="1" parent="1" source="zTeEEiwg9sR5JX6L5g-o-83" target="zTeEEiwg9sR5JX6L5g-o-86">
          <mxGeometry relative="1" as="geometry" />
        </mxCell>
        <mxCell id="zTeEEiwg9sR5JX6L5g-o-83" value="Object Identified!" style="strokeWidth=2;html=1;shape=mxgraph.flowchart.terminator;whiteSpace=wrap;" vertex="1" parent="1">
          <mxGeometry x="630" y="760" width="100" height="40" as="geometry" />
        </mxCell>
        <mxCell id="zTeEEiwg9sR5JX6L5g-o-86" value="Name unique feature of identified object &amp;amp; Name Eliminated objects" style="rounded=1;whiteSpace=wrap;html=1;absoluteArcSize=1;arcSize=14;strokeWidth=2;" vertex="1" parent="1">
          <mxGeometry x="595" y="820" width="180" height="60" as="geometry" />
        </mxCell>
      </root>
    </mxGraphModel>
  </diagram>
  <diagram id="FeQ7ZF88zYd6AKV9VZUB" name="System Architecture">
    <mxGraphModel dx="1185" dy="635" grid="1" gridSize="10" guides="1" tooltips="1" connect="1" arrows="1" fold="1" page="1" pageScale="1" pageWidth="850" pageHeight="1100" math="0" shadow="0">
      <root>
        <mxCell id="aVvZO4t_2UFOK2ntMMIj-0" />
        <mxCell id="aVvZO4t_2UFOK2ntMMIj-1" parent="aVvZO4t_2UFOK2ntMMIj-0" />
        <mxCell id="LTCysOQksiWSHhuGz-yG-5" value="" style="rounded=0;whiteSpace=wrap;html=1;" vertex="1" parent="aVvZO4t_2UFOK2ntMMIj-1">
          <mxGeometry x="50" y="70" width="770" height="300" as="geometry" />
        </mxCell>
        <mxCell id="-lRG4-3SdcGjMspqSuEF-0" value="" style="rounded=0;whiteSpace=wrap;html=1;" vertex="1" parent="aVvZO4t_2UFOK2ntMMIj-1">
          <mxGeometry x="280" y="120" width="520" height="230" as="geometry" />
        </mxCell>
        <mxCell id="-lRG4-3SdcGjMspqSuEF-2" value="&lt;font face=&quot;Helvetica&quot; style=&quot;font-size: 23px&quot;&gt;Disambiguation Module&lt;/font&gt;" style="text;html=1;strokeColor=none;fillColor=none;align=center;verticalAlign=middle;whiteSpace=wrap;rounded=0;fontFamily=Ariel;fontSize=26;fontStyle=1" vertex="1" parent="aVvZO4t_2UFOK2ntMMIj-1">
          <mxGeometry x="450" y="90" width="350" height="30" as="geometry" />
        </mxCell>
        <mxCell id="-lRG4-3SdcGjMspqSuEF-3" value="" style="shape=singleArrow;whiteSpace=wrap;html=1;fontFamily=Ariel;fontSize=33;direction=west;" vertex="1" parent="aVvZO4t_2UFOK2ntMMIj-1">
          <mxGeometry x="200" y="290" width="50" height="60" as="geometry" />
        </mxCell>
        <mxCell id="MZ-EbvqHH2Hd0q8Naai8-45" style="edgeStyle=orthogonalEdgeStyle;rounded=0;orthogonalLoop=1;jettySize=auto;html=1;exitX=1;exitY=0.5;exitDx=0;exitDy=0;exitPerimeter=0;entryX=0;entryY=0.5;entryDx=0;entryDy=0;" edge="1" parent="aVvZO4t_2UFOK2ntMMIj-1" source="-lRG4-3SdcGjMspqSuEF-4" target="maniBmzTgm5A6uIZHpCA-0">
          <mxGeometry relative="1" as="geometry" />
        </mxCell>
        <mxCell id="MZ-EbvqHH2Hd0q8Naai8-46" style="edgeStyle=orthogonalEdgeStyle;rounded=0;orthogonalLoop=1;jettySize=auto;html=1;exitX=1;exitY=0.5;exitDx=0;exitDy=0;exitPerimeter=0;entryX=0;entryY=0.5;entryDx=0;entryDy=0;" edge="1" parent="aVvZO4t_2UFOK2ntMMIj-1" source="-lRG4-3SdcGjMspqSuEF-4" target="maniBmzTgm5A6uIZHpCA-1">
          <mxGeometry relative="1" as="geometry" />
        </mxCell>
        <mxCell id="-lRG4-3SdcGjMspqSuEF-4" value="" style="shape=singleArrow;whiteSpace=wrap;html=1;fontFamily=Ariel;fontSize=33;" vertex="1" parent="aVvZO4t_2UFOK2ntMMIj-1">
          <mxGeometry x="200" y="170" width="50" height="60" as="geometry" />
        </mxCell>
        <mxCell id="MZ-EbvqHH2Hd0q8Naai8-47" style="edgeStyle=orthogonalEdgeStyle;rounded=0;orthogonalLoop=1;jettySize=auto;html=1;exitX=1;exitY=0.5;exitDx=0;exitDy=0;entryX=0;entryY=0.5;entryDx=0;entryDy=0;" edge="1" parent="aVvZO4t_2UFOK2ntMMIj-1" source="-lRG4-3SdcGjMspqSuEF-36" target="MZ-EbvqHH2Hd0q8Naai8-43">
          <mxGeometry relative="1" as="geometry" />
        </mxCell>
        <mxCell id="-lRG4-3SdcGjMspqSuEF-36" value="&lt;font face=&quot;Helvetica&quot; style=&quot;font-size: 11px&quot;&gt;Pointing Location Recognition&lt;/font&gt;" style="shape=process;whiteSpace=wrap;html=1;backgroundOutline=1;fontFamily=Ariel;fontSize=15;" vertex="1" parent="aVvZO4t_2UFOK2ntMMIj-1">
          <mxGeometry x="70" y="130" width="190" height="30" as="geometry" />
        </mxCell>
        <mxCell id="I-O7jv44LwccolgvO8Mc-1" style="edgeStyle=orthogonalEdgeStyle;rounded=0;orthogonalLoop=1;jettySize=auto;html=1;exitX=1;exitY=0.5;exitDx=0;exitDy=0;exitPerimeter=0;entryX=0;entryY=0.5;entryDx=0;entryDy=0;" edge="1" parent="aVvZO4t_2UFOK2ntMMIj-1" source="UJljp3OvhoUuX7DJOqij-0" target="PiE12PeAjyvumSyaPmsh-0">
          <mxGeometry relative="1" as="geometry">
            <Array as="points">
              <mxPoint x="450" y="200" />
            </Array>
          </mxGeometry>
        </mxCell>
        <mxCell id="UJljp3OvhoUuX7DJOqij-0" value="Attribute Database" style="strokeWidth=2;html=1;shape=mxgraph.flowchart.database;whiteSpace=wrap;" vertex="1" parent="aVvZO4t_2UFOK2ntMMIj-1">
          <mxGeometry x="310" y="170" width="140" height="30" as="geometry" />
        </mxCell>
        <mxCell id="01hTt_fd7HrmgokKENHU-4" style="edgeStyle=orthogonalEdgeStyle;rounded=0;orthogonalLoop=1;jettySize=auto;html=1;exitX=0.5;exitY=0;exitDx=0;exitDy=0;entryX=0.5;entryY=0;entryDx=0;entryDy=0;" edge="1" parent="aVvZO4t_2UFOK2ntMMIj-1" source="p_VHtk6yPo9CPmWyndfi-0" target="-lRG4-3SdcGjMspqSuEF-37">
          <mxGeometry relative="1" as="geometry">
            <Array as="points">
              <mxPoint x="534" y="230" />
              <mxPoint x="590" y="230" />
              <mxPoint x="590" y="170" />
              <mxPoint x="700" y="170" />
            </Array>
          </mxGeometry>
        </mxCell>
        <mxCell id="LTCysOQksiWSHhuGz-yG-1" style="edgeStyle=orthogonalEdgeStyle;rounded=0;orthogonalLoop=1;jettySize=auto;html=1;exitX=0;exitY=0.5;exitDx=0;exitDy=0;entryX=0.25;entryY=0;entryDx=0;entryDy=0;" edge="1" parent="aVvZO4t_2UFOK2ntMMIj-1" source="p_VHtk6yPo9CPmWyndfi-0" target="LTCysOQksiWSHhuGz-yG-0">
          <mxGeometry relative="1" as="geometry" />
        </mxCell>
        <mxCell id="p_VHtk6yPo9CPmWyndfi-0" value="Decision Handler" style="whiteSpace=wrap;html=1;" vertex="1" parent="aVvZO4t_2UFOK2ntMMIj-1">
          <mxGeometry x="497.5" y="255" width="72.5" height="40" as="geometry" />
        </mxCell>
        <mxCell id="p_VHtk6yPo9CPmWyndfi-1" value="" style="edgeStyle=elbowEdgeStyle;elbow=vertical;html=1;rounded=0;" edge="1" parent="aVvZO4t_2UFOK2ntMMIj-1" source="aVvZO4t_2UFOK2ntMMIj-1" target="p_VHtk6yPo9CPmWyndfi-0">
          <mxGeometry relative="1" as="geometry">
            <mxPoint x="660" y="550" as="sourcePoint" />
            <mxPoint x="590" y="600" as="targetPoint" />
          </mxGeometry>
        </mxCell>
        <mxCell id="MZ-EbvqHH2Hd0q8Naai8-26" value="" style="group" vertex="1" connectable="0" parent="aVvZO4t_2UFOK2ntMMIj-1">
          <mxGeometry x="315" y="210" width="130" height="130" as="geometry" />
        </mxCell>
        <mxCell id="MZ-EbvqHH2Hd0q8Naai8-24" value="" style="rounded=1;whiteSpace=wrap;html=1;absoluteArcSize=1;arcSize=14;strokeWidth=2;" vertex="1" parent="MZ-EbvqHH2Hd0q8Naai8-26">
          <mxGeometry width="130" height="130" as="geometry" />
        </mxCell>
        <mxCell id="maniBmzTgm5A6uIZHpCA-0" value="Speech Recognition Service" style="rounded=1;whiteSpace=wrap;html=1;" vertex="1" parent="MZ-EbvqHH2Hd0q8Naai8-26">
          <mxGeometry x="5" y="32.5" width="120" height="27.624999999999996" as="geometry" />
        </mxCell>
        <mxCell id="maniBmzTgm5A6uIZHpCA-1" value="Hand Gesture Recognition Service" style="rounded=1;whiteSpace=wrap;html=1;" vertex="1" parent="MZ-EbvqHH2Hd0q8Naai8-26">
          <mxGeometry x="5" y="65" width="120" height="28.437499999999996" as="geometry" />
        </mxCell>
        <mxCell id="maniBmzTgm5A6uIZHpCA-2" value="Speech Synthesis" style="rounded=1;whiteSpace=wrap;html=1;" vertex="1" parent="MZ-EbvqHH2Hd0q8Naai8-26">
          <mxGeometry x="5" y="97.5" width="120" height="24.375" as="geometry" />
        </mxCell>
        <mxCell id="MZ-EbvqHH2Hd0q8Naai8-25" value="&lt;b&gt;Interaction Class&lt;/b&gt;" style="rounded=0;whiteSpace=wrap;html=1;" vertex="1" parent="MZ-EbvqHH2Hd0q8Naai8-26">
          <mxGeometry x="5" y="8.125" width="120" height="19.5" as="geometry" />
        </mxCell>
        <mxCell id="MZ-EbvqHH2Hd0q8Naai8-30" value="" style="group" vertex="1" connectable="0" parent="aVvZO4t_2UFOK2ntMMIj-1">
          <mxGeometry x="610" y="190" width="180" height="150" as="geometry" />
        </mxCell>
        <mxCell id="-lRG4-3SdcGjMspqSuEF-37" value="&lt;font face=&quot;Helvetica&quot; style=&quot;font-size: 17px&quot;&gt;Questions&lt;/font&gt;" style="shape=table;html=1;whiteSpace=wrap;startSize=30;container=1;collapsible=0;childLayout=tableLayout;fixedRows=1;rowLines=0;fontStyle=1;align=center;fontFamily=Ariel;fontSize=26;" vertex="1" parent="MZ-EbvqHH2Hd0q8Naai8-30">
          <mxGeometry width="180" height="150" as="geometry" />
        </mxCell>
        <mxCell id="-lRG4-3SdcGjMspqSuEF-38" value="" style="shape=partialRectangle;html=1;whiteSpace=wrap;collapsible=0;dropTarget=0;pointerEvents=0;fillColor=none;top=0;left=0;bottom=1;right=0;points=[[0,0.5],[1,0.5]];portConstraint=eastwest;" vertex="1" parent="-lRG4-3SdcGjMspqSuEF-37">
          <mxGeometry y="30" width="180" height="30" as="geometry" />
        </mxCell>
        <mxCell id="-lRG4-3SdcGjMspqSuEF-39" value="1" style="shape=partialRectangle;html=1;whiteSpace=wrap;connectable=0;fillColor=none;top=0;left=0;bottom=0;right=0;overflow=hidden;" vertex="1" parent="-lRG4-3SdcGjMspqSuEF-38">
          <mxGeometry width="50" height="30" as="geometry" />
        </mxCell>
        <mxCell id="-lRG4-3SdcGjMspqSuEF-40" value="Attribute with most unique features" style="shape=partialRectangle;html=1;whiteSpace=wrap;connectable=0;fillColor=none;top=0;left=0;bottom=0;right=0;align=left;spacingLeft=6;overflow=hidden;" vertex="1" parent="-lRG4-3SdcGjMspqSuEF-38">
          <mxGeometry x="50" width="130" height="30" as="geometry" />
        </mxCell>
        <mxCell id="-lRG4-3SdcGjMspqSuEF-41" style="shape=partialRectangle;html=1;whiteSpace=wrap;collapsible=0;dropTarget=0;pointerEvents=0;fillColor=none;top=0;left=0;bottom=1;right=0;points=[[0,0.5],[1,0.5]];portConstraint=eastwest;" vertex="1" parent="-lRG4-3SdcGjMspqSuEF-37">
          <mxGeometry y="60" width="180" height="30" as="geometry" />
        </mxCell>
        <mxCell id="-lRG4-3SdcGjMspqSuEF-42" value="2" style="shape=partialRectangle;html=1;whiteSpace=wrap;connectable=0;fillColor=none;top=0;left=0;bottom=0;right=0;overflow=hidden;" vertex="1" parent="-lRG4-3SdcGjMspqSuEF-41">
          <mxGeometry width="50" height="30" as="geometry" />
        </mxCell>
        <mxCell id="-lRG4-3SdcGjMspqSuEF-43" value="..." style="shape=partialRectangle;html=1;whiteSpace=wrap;connectable=0;fillColor=none;top=0;left=0;bottom=0;right=0;align=left;spacingLeft=6;overflow=hidden;" vertex="1" parent="-lRG4-3SdcGjMspqSuEF-41">
          <mxGeometry x="50" width="130" height="30" as="geometry" />
        </mxCell>
        <mxCell id="-lRG4-3SdcGjMspqSuEF-44" style="shape=partialRectangle;html=1;whiteSpace=wrap;collapsible=0;dropTarget=0;pointerEvents=0;fillColor=none;top=0;left=0;bottom=1;right=0;points=[[0,0.5],[1,0.5]];portConstraint=eastwest;" vertex="1" parent="-lRG4-3SdcGjMspqSuEF-37">
          <mxGeometry y="90" width="180" height="30" as="geometry" />
        </mxCell>
        <mxCell id="-lRG4-3SdcGjMspqSuEF-45" value="3" style="shape=partialRectangle;html=1;whiteSpace=wrap;connectable=0;fillColor=none;top=0;left=0;bottom=0;right=0;overflow=hidden;" vertex="1" parent="-lRG4-3SdcGjMspqSuEF-44">
          <mxGeometry width="50" height="30" as="geometry" />
        </mxCell>
        <mxCell id="-lRG4-3SdcGjMspqSuEF-46" value="..." style="shape=partialRectangle;html=1;whiteSpace=wrap;connectable=0;fillColor=none;top=0;left=0;bottom=0;right=0;align=left;spacingLeft=6;overflow=hidden;" vertex="1" parent="-lRG4-3SdcGjMspqSuEF-44">
          <mxGeometry x="50" width="130" height="30" as="geometry" />
        </mxCell>
        <mxCell id="MZ-EbvqHH2Hd0q8Naai8-9" style="shape=partialRectangle;html=1;whiteSpace=wrap;collapsible=0;dropTarget=0;pointerEvents=0;fillColor=none;top=0;left=0;bottom=1;right=0;points=[[0,0.5],[1,0.5]];portConstraint=eastwest;" vertex="1" parent="MZ-EbvqHH2Hd0q8Naai8-30">
          <mxGeometry y="120" width="180" height="30" as="geometry" />
        </mxCell>
        <mxCell id="MZ-EbvqHH2Hd0q8Naai8-10" value="4" style="shape=partialRectangle;html=1;whiteSpace=wrap;connectable=0;fillColor=none;top=0;left=0;bottom=0;right=0;overflow=hidden;" vertex="1" parent="MZ-EbvqHH2Hd0q8Naai8-9">
          <mxGeometry width="50" height="30" as="geometry" />
        </mxCell>
        <mxCell id="MZ-EbvqHH2Hd0q8Naai8-11" value="Attribute with least unique features" style="shape=partialRectangle;html=1;whiteSpace=wrap;connectable=0;fillColor=none;top=0;left=0;bottom=0;right=0;align=left;spacingLeft=6;overflow=hidden;" vertex="1" parent="MZ-EbvqHH2Hd0q8Naai8-9">
          <mxGeometry x="50" width="130" height="30" as="geometry" />
        </mxCell>
        <mxCell id="MZ-EbvqHH2Hd0q8Naai8-33" style="edgeStyle=orthogonalEdgeStyle;rounded=0;orthogonalLoop=1;jettySize=auto;html=1;exitX=0;exitY=0.5;exitDx=0;exitDy=0;entryX=0;entryY=0.5;entryDx=0;entryDy=0;entryPerimeter=0;" edge="1" parent="aVvZO4t_2UFOK2ntMMIj-1" source="maniBmzTgm5A6uIZHpCA-2" target="-lRG4-3SdcGjMspqSuEF-3">
          <mxGeometry relative="1" as="geometry" />
        </mxCell>
        <mxCell id="I-O7jv44LwccolgvO8Mc-2" style="edgeStyle=orthogonalEdgeStyle;rounded=0;orthogonalLoop=1;jettySize=auto;html=1;exitX=1;exitY=0.5;exitDx=0;exitDy=0;entryX=0;entryY=0.5;entryDx=0;entryDy=0;" edge="1" parent="aVvZO4t_2UFOK2ntMMIj-1" source="MZ-EbvqHH2Hd0q8Naai8-43" target="PiE12PeAjyvumSyaPmsh-0">
          <mxGeometry relative="1" as="geometry">
            <Array as="points">
              <mxPoint x="460" y="145" />
              <mxPoint x="460" y="200" />
            </Array>
          </mxGeometry>
        </mxCell>
        <mxCell id="I-O7jv44LwccolgvO8Mc-5" style="edgeStyle=orthogonalEdgeStyle;rounded=0;orthogonalLoop=1;jettySize=auto;html=1;exitX=1;exitY=0.5;exitDx=0;exitDy=0;" edge="1" parent="aVvZO4t_2UFOK2ntMMIj-1" source="MZ-EbvqHH2Hd0q8Naai8-43" target="I-O7jv44LwccolgvO8Mc-4">
          <mxGeometry relative="1" as="geometry" />
        </mxCell>
        <mxCell id="clPMioRTXQnXnTVIn0D--2" style="edgeStyle=orthogonalEdgeStyle;rounded=0;orthogonalLoop=1;jettySize=auto;html=1;exitX=1;exitY=0.5;exitDx=0;exitDy=0;entryX=0.5;entryY=0;entryDx=0;entryDy=0;" edge="1" parent="aVvZO4t_2UFOK2ntMMIj-1" source="MZ-EbvqHH2Hd0q8Naai8-43" target="-lRG4-3SdcGjMspqSuEF-37">
          <mxGeometry relative="1" as="geometry" />
        </mxCell>
        <mxCell id="MZ-EbvqHH2Hd0q8Naai8-43" value="Objects Identified in pointing region" style="rounded=1;whiteSpace=wrap;html=1;" vertex="1" parent="aVvZO4t_2UFOK2ntMMIj-1">
          <mxGeometry x="310" y="130" width="140" height="30" as="geometry" />
        </mxCell>
        <mxCell id="clPMioRTXQnXnTVIn0D--0" style="edgeStyle=orthogonalEdgeStyle;rounded=0;orthogonalLoop=1;jettySize=auto;html=1;exitX=1;exitY=0.5;exitDx=0;exitDy=0;entryX=0.5;entryY=0;entryDx=0;entryDy=0;" edge="1" parent="aVvZO4t_2UFOK2ntMMIj-1" source="PiE12PeAjyvumSyaPmsh-0" target="-lRG4-3SdcGjMspqSuEF-37">
          <mxGeometry relative="1" as="geometry" />
        </mxCell>
        <mxCell id="PiE12PeAjyvumSyaPmsh-0" value="Generate Unique features" style="whiteSpace=wrap;html=1;" vertex="1" parent="aVvZO4t_2UFOK2ntMMIj-1">
          <mxGeometry x="480" y="181.25" width="90" height="37.5" as="geometry" />
        </mxCell>
        <mxCell id="clPMioRTXQnXnTVIn0D--1" style="edgeStyle=orthogonalEdgeStyle;rounded=0;orthogonalLoop=1;jettySize=auto;html=1;exitX=1;exitY=0.5;exitDx=0;exitDy=0;entryX=0.5;entryY=0;entryDx=0;entryDy=0;" edge="1" parent="aVvZO4t_2UFOK2ntMMIj-1" source="I-O7jv44LwccolgvO8Mc-4" target="-lRG4-3SdcGjMspqSuEF-37">
          <mxGeometry relative="1" as="geometry" />
        </mxCell>
        <mxCell id="I-O7jv44LwccolgvO8Mc-4" value="Find Closest Object" style="whiteSpace=wrap;html=1;" vertex="1" parent="aVvZO4t_2UFOK2ntMMIj-1">
          <mxGeometry x="480" y="126.25" width="90" height="37.5" as="geometry" />
        </mxCell>
        <mxCell id="01hTt_fd7HrmgokKENHU-0" style="edgeStyle=orthogonalEdgeStyle;rounded=0;orthogonalLoop=1;jettySize=auto;html=1;exitX=0;exitY=0.5;exitDx=0;exitDy=0;entryX=1;entryY=0.5;entryDx=0;entryDy=0;" edge="1" parent="aVvZO4t_2UFOK2ntMMIj-1" source="-lRG4-3SdcGjMspqSuEF-38" target="p_VHtk6yPo9CPmWyndfi-0">
          <mxGeometry relative="1" as="geometry" />
        </mxCell>
        <mxCell id="01hTt_fd7HrmgokKENHU-1" style="edgeStyle=orthogonalEdgeStyle;rounded=0;orthogonalLoop=1;jettySize=auto;html=1;exitX=0;exitY=0.5;exitDx=0;exitDy=0;entryX=1;entryY=0.5;entryDx=0;entryDy=0;" edge="1" parent="aVvZO4t_2UFOK2ntMMIj-1" source="-lRG4-3SdcGjMspqSuEF-41" target="p_VHtk6yPo9CPmWyndfi-0">
          <mxGeometry relative="1" as="geometry" />
        </mxCell>
        <mxCell id="01hTt_fd7HrmgokKENHU-2" style="edgeStyle=orthogonalEdgeStyle;rounded=0;orthogonalLoop=1;jettySize=auto;html=1;exitX=0;exitY=0.5;exitDx=0;exitDy=0;" edge="1" parent="aVvZO4t_2UFOK2ntMMIj-1" source="-lRG4-3SdcGjMspqSuEF-44" target="p_VHtk6yPo9CPmWyndfi-0">
          <mxGeometry relative="1" as="geometry" />
        </mxCell>
        <mxCell id="01hTt_fd7HrmgokKENHU-3" style="edgeStyle=orthogonalEdgeStyle;rounded=0;orthogonalLoop=1;jettySize=auto;html=1;exitX=0;exitY=0.5;exitDx=0;exitDy=0;entryX=1;entryY=0.5;entryDx=0;entryDy=0;" edge="1" parent="aVvZO4t_2UFOK2ntMMIj-1" source="MZ-EbvqHH2Hd0q8Naai8-9" target="p_VHtk6yPo9CPmWyndfi-0">
          <mxGeometry relative="1" as="geometry" />
        </mxCell>
        <mxCell id="LTCysOQksiWSHhuGz-yG-2" style="edgeStyle=orthogonalEdgeStyle;rounded=0;orthogonalLoop=1;jettySize=auto;html=1;exitX=0;exitY=0.5;exitDx=0;exitDy=0;entryX=1;entryY=0.5;entryDx=0;entryDy=0;" edge="1" parent="aVvZO4t_2UFOK2ntMMIj-1" source="LTCysOQksiWSHhuGz-yG-0" target="maniBmzTgm5A6uIZHpCA-2">
          <mxGeometry relative="1" as="geometry" />
        </mxCell>
        <mxCell id="LTCysOQksiWSHhuGz-yG-0" value="Generate user response" style="whiteSpace=wrap;html=1;" vertex="1" parent="aVvZO4t_2UFOK2ntMMIj-1">
          <mxGeometry x="460" y="300" width="90" height="40" as="geometry" />
        </mxCell>
        <mxCell id="LTCysOQksiWSHhuGz-yG-4" value="&lt;b&gt;Person&lt;/b&gt;" style="shape=actor;whiteSpace=wrap;html=1;" vertex="1" parent="aVvZO4t_2UFOK2ntMMIj-1">
          <mxGeometry x="100" y="190" width="86.67" height="130" as="geometry" />
        </mxCell>
      </root>
    </mxGraphModel>
  </diagram>
</mxfile>
